<svg xmlns="http://www.w3.org/2000/svg" xmlns:xlink="http://www.w3.org/1999/xlink" width="240.156" height="59.288" viewBox="0 0 240.156 59.288">
  <defs>
    <clipPath id="clip-path">
      <rect id="Rectangle_11" data-name="Rectangle 11" width="93.156" height="59.287" fill="#828488"/>
    </clipPath>
  </defs>
  <g id="Group_62" data-name="Group 62" transform="translate(-82.344 -3002.713)">
    <g id="Group_51" data-name="Group 51" transform="translate(91.344 2820.713)" opacity="0.192">
      <g id="Group_2" data-name="Group 2" transform="translate(-9 182)" clip-path="url(#clip-path)">
        <path id="Path_1" data-name="Path 1" d="M93.156.25,37.135.1c-.521,0-1.042-.029-1.562-.072-1.228-.1-4.093-.084-5.309,2.075C28.695,4.893.06,56.634.06,56.634s-.654,2.653,2.354,2.653H55.107a5.528,5.528,0,0,0,4.576-2.653C61.4,54.02,86.252,8.665,89.316,3.07a5.824,5.824,0,0,1,1.746-1.99A4.61,4.61,0,0,1,93.156.25" transform="translate(0 -0.001)" fill="#828488"/>
      </g>
    </g>
    <g id="Group_52" data-name="Group 52" transform="translate(164.344 2820.713)" opacity="0.192">
      <g id="Group_2-2" data-name="Group 2" transform="translate(-9 182)" clip-path="url(#clip-path)">
        <path id="Path_1-2" data-name="Path 1" d="M93.156.25,37.135.1c-.521,0-1.042-.029-1.562-.072-1.228-.1-4.093-.084-5.309,2.075C28.695,4.893.06,56.634.06,56.634s-.654,2.653,2.354,2.653H55.107a5.528,5.528,0,0,0,4.576-2.653C61.4,54.02,86.252,8.665,89.316,3.07a5.824,5.824,0,0,1,1.746-1.99A4.61,4.61,0,0,1,93.156.25" transform="translate(0 -0.001)" fill="#828488"/>
      </g>
    </g>
    <g id="Group_53" data-name="Group 53" transform="translate(238.344 2820.713)" opacity="0.192">
      <g id="Group_2-3" data-name="Group 2" transform="translate(-9 182)" clip-path="url(#clip-path)">
        <path id="Path_1-3" data-name="Path 1" d="M93.156.25,37.135.1c-.521,0-1.042-.029-1.562-.072-1.228-.1-4.093-.084-5.309,2.075C28.695,4.893.06,56.634.06,56.634s-.654,2.653,2.354,2.653H55.107a5.528,5.528,0,0,0,4.576-2.653C61.4,54.02,86.252,8.665,89.316,3.07a5.824,5.824,0,0,1,1.746-1.99A4.61,4.61,0,0,1,93.156.25" transform="translate(0 -0.001)" fill="#828488"/>
      </g>
    </g>
  </g>
</svg>
